<svg xmlns="http://www.w3.org/2000/svg" version="1.1" xmlns:xlink="http://www.w3.org/1999/xlink" xmlns:svgjs="http://svgjs.com/svgjs" width="1440" height="560" preserveAspectRatio="none" viewBox="0 0 1440 560"><g mask="url(&quot;#SvgjsMask8696&quot;)" fill="none"><rect width="1440" height="560" x="0" y="0" fill="url(#SvgjsLinearGradient8697)"></rect><rect width="168" height="168" clip-path="url(&quot;#SvgjsClipPath8698&quot;)" x="1040.62" y="-82.25" fill="url(#SvgjsPattern8699)" transform="rotate(48.6, 1124.62, 1.75)"></rect><circle r="91.59888501498233" cx="1033.15" cy="436.16" stroke="rgba(244, 248, 255, 1)" stroke-width="2.74" stroke-dasharray="2, 2"></circle><path d="M70.69 309.58000000000004 L111.52 444.48L155.48112438850782 312.6538756114922z" stroke="rgba(244, 248, 255, 1)" stroke-width="1"></path><rect width="60" height="60" clip-path="url(&quot;#SvgjsClipPath8700&quot;)" x="191.35" y="68.58" fill="url(#SvgjsPattern8701)" transform="rotate(177.44, 221.35, 98.58)"></rect><rect width="132.4" height="132.4" clip-path="url(&quot;#SvgjsClipPath8702&quot;)" x="29.51" y="234.18" fill="url(#SvgjsPattern8703)" transform="rotate(126.53, 95.71, 300.38)"></rect><path d="M208.92000000000002 276.71000000000004 L157.11 220.11L138.43338326986236 292.9916167301377z" stroke="rgba(241, 77, 77, 1)" stroke-width="2.24" stroke-dasharray="4, 4"></path><path d="M537.87 45.48a5.6 5.6 0 1 0 11.16 1 5.6 5.6 0 1 0-11.16-1zM553.81 46.91a5.6 5.6 0 1 0 11.15 1.01 5.6 5.6 0 1 0-11.15-1.01zM569.74 48.35a5.6 5.6 0 1 0 11.16 1 5.6 5.6 0 1 0-11.16-1zM585.68 49.78a5.6 5.6 0 1 0 11.15 1 5.6 5.6 0 1 0-11.15-1zM504.57 58.55a5.6 5.6 0 1 0 11.15 1 5.6 5.6 0 1 0-11.15-1zM520.5 59.98a5.6 5.6 0 1 0 11.16 1.01 5.6 5.6 0 1 0-11.16-1.01zM536.44 61.42a5.6 5.6 0 1 0 11.15 1 5.6 5.6 0 1 0-11.15-1zM552.37 62.85a5.6 5.6 0 1 0 11.16 1 5.6 5.6 0 1 0-11.16-1zM471.26 71.62a5.6 5.6 0 1 0 11.16 1 5.6 5.6 0 1 0-11.16-1zM487.2 73.05a5.6 5.6 0 1 0 11.15 1.01 5.6 5.6 0 1 0-11.15-1.01zM503.13 74.49a5.6 5.6 0 1 0 11.16 1 5.6 5.6 0 1 0-11.16-1zM519.07 75.92a5.6 5.6 0 1 0 11.15 1 5.6 5.6 0 1 0-11.15-1z" fill="rgba(241, 77, 77, 1)"></path><circle r="46.666666666666664" cx="1433.46" cy="162.97" fill="rgba(244, 248, 255, 1)"></circle><rect width="193.32" height="193.32" clip-path="url(&quot;#SvgjsClipPath8704&quot;)" x="-41.8" y="242.48" fill="url(#SvgjsPattern8705)" transform="rotate(358.96, 54.86, 339.14)"></rect><rect width="226.44" height="226.44" clip-path="url(&quot;#SvgjsClipPath8706&quot;)" x="1109.08" y="151.61" fill="url(#SvgjsPattern8707)" transform="rotate(148.43, 1222.3, 264.83)"></rect><path d="M617.86 402.87L625.94 392.93 637.4 398.64 645.49 388.71 656.95 394.42 665.04 384.49 676.5 390.2" stroke="rgba(244, 248, 255, 1)" stroke-width="1" stroke-dasharray="3, 2"></path><rect width="83.76" height="83.76" clip-path="url(&quot;#SvgjsClipPath8708&quot;)" x="1067.75" y="372.02" fill="url(#SvgjsPattern8709)" transform="rotate(251.05, 1109.63, 413.9)"></rect></g><defs><mask id="SvgjsMask8696"><rect width="1440" height="560" fill="#ffffff"></rect></mask><linearGradient x1="15.28%" y1="-39.29%" x2="84.72%" y2="139.29%" gradientUnits="userSpaceOnUse" id="SvgjsLinearGradient8697"><stop stop-color="rgba(123, 83, 144, 0.9)" offset="0"></stop><stop stop-color="rgba(112, 48, 48, 1)" offset="0.82"></stop></linearGradient><pattern x="0" y="0" width="6" height="6" patternUnits="userSpaceOnUse" id="SvgjsPattern8699"><path d="M3 1L3 5M1 3L5 3" stroke="rgba(244, 248, 255, 1)" fill="none" stroke-width="1"></path></pattern><clipPath id="SvgjsClipPath8698"><circle r="42" cx="1124.62" cy="1.75"></circle></clipPath><pattern x="0" y="0" width="60" height="6" patternUnits="userSpaceOnUse" id="SvgjsPattern8701"><rect width="60" height="3" x="0" y="0" fill="rgba(241, 77, 77, 1)"></rect><rect width="60" height="3" x="0" y="3" fill="rgba(0, 0, 0, 0)"></rect></pattern><clipPath id="SvgjsClipPath8700"><circle r="15" cx="221.35" cy="98.58"></circle></clipPath><pattern x="0" y="0" width="132.4" height="13.24" patternUnits="userSpaceOnUse" id="SvgjsPattern8703"><rect width="132.4" height="6.62" x="0" y="0" fill="rgba(244, 248, 255, 1)"></rect><rect width="132.4" height="6.62" x="0" y="6.62" fill="rgba(0, 0, 0, 0)"></rect></pattern><clipPath id="SvgjsClipPath8702"><circle r="33.1" cx="95.71" cy="300.38"></circle></clipPath><pattern x="0" y="0" width="10.74" height="10.74" patternUnits="userSpaceOnUse" id="SvgjsPattern8705"><path d="M0 10.74L5.37 0L10.74 10.74" stroke="rgba(241, 77, 77, 1)" fill="none"></path></pattern><clipPath id="SvgjsClipPath8704"><circle r="48.33" cx="54.86" cy="339.14"></circle></clipPath><pattern x="0" y="0" width="6.66" height="6.66" patternUnits="userSpaceOnUse" id="SvgjsPattern8707"><path d="M3.33 1L3.33 5.66M1 3.33L5.66 3.33" stroke="rgba(241, 77, 77, 1)" fill="none" stroke-width="1"></path></pattern><clipPath id="SvgjsClipPath8706"><circle r="56.61" cx="1222.3" cy="264.83"></circle></clipPath><pattern x="0" y="0" width="6.98" height="6.98" patternUnits="userSpaceOnUse" id="SvgjsPattern8709"><path d="M0 6.98L3.49 0L6.98 6.98" stroke="rgba(241, 77, 77, 1)" fill="none"></path></pattern><clipPath id="SvgjsClipPath8708"><circle r="20.94" cx="1109.63" cy="413.9"></circle></clipPath></defs></svg>